<?xml version="1.0" encoding="UTF-8" standalone="no"?>
<!DOCTYPE svg PUBLIC "-//W3C//DTD SVG 1.1//EN"
 "http://www.w3.org/Graphics/SVG/1.1/DTD/svg11.dtd">
<!-- Generated by graphviz version 2.40.1 (20161225.0304)
 -->
<!-- Title: stoplight Pages: 1 -->
<svg width="486pt" height="603pt"
 viewBox="0.00 0.00 486.00 602.80" xmlns="http://www.w3.org/2000/svg" xmlns:xlink="http://www.w3.org/1999/xlink">
<g id="graph0" class="graph" transform="scale(1 1) rotate(0) translate(4 598.8)">
<title>stoplight</title>
<polygon fill="#ffffff" stroke="transparent" points="-4,4 -4,-598.8 482,-598.8 482,4 -4,4"/>
<g id="clust1" class="cluster">
<title>cluster_StopMap</title>
<polygon fill="none" stroke="#000000" points="8,-8 8,-586.8 470,-586.8 470,-8 8,-8"/>
<text text-anchor="middle" x="239" y="-570.2" font-family="Times,serif" font-size="14.00" fill="#000000">StopMap</text>
</g>
<!-- StopMap::EastWestGreen -->
<g id="node1" class="node">
<title>StopMap::EastWestGreen</title>
<path fill="none" stroke="#000000" d="M130,-517.5C130,-517.5 214,-517.5 214,-517.5 220,-517.5 226,-523.5 226,-529.5 226,-529.5 226,-541.5 226,-541.5 226,-547.5 220,-553.5 214,-553.5 214,-553.5 130,-553.5 130,-553.5 124,-553.5 118,-547.5 118,-541.5 118,-541.5 118,-529.5 118,-529.5 118,-523.5 124,-517.5 130,-517.5"/>
<text text-anchor="middle" x="171.5316" y="-531.4" font-family="Times,serif" font-size="14.00" fill="#000000">EastWestGreen</text>
</g>
<!-- StopMap::EastWestYellow -->
<g id="node2" class="node">
<title>StopMap::EastWestYellow</title>
<path fill="none" stroke="#000000" d="M63.9621,-356.1C63.9621,-356.1 150.0379,-356.1 150.0379,-356.1 156.0379,-356.1 162.0379,-362.1 162.0379,-368.1 162.0379,-368.1 162.0379,-380.1 162.0379,-380.1 162.0379,-386.1 156.0379,-392.1 150.0379,-392.1 150.0379,-392.1 63.9621,-392.1 63.9621,-392.1 57.9621,-392.1 51.9621,-386.1 51.9621,-380.1 51.9621,-380.1 51.9621,-368.1 51.9621,-368.1 51.9621,-362.1 57.9621,-356.1 63.9621,-356.1"/>
<text text-anchor="middle" x="107" y="-370" font-family="Times,serif" font-size="14.00" fill="#000000">EastWestYellow</text>
</g>
<!-- StopMap::EastWestGreen&#45;&gt;StopMap::EastWestYellow -->
<g id="edge1" class="edge">
<title>StopMap::EastWestGreen&#45;&gt;StopMap::EastWestYellow</title>
<path fill="none" stroke="#000000" d="M117.8807,-519.5357C98.8184,-511.02 79.4142,-498.3806 68.4094,-480 56.9028,-460.7813 61.7087,-450.9743 68.4094,-429.6 71.6216,-419.3535 77.4676,-409.3415 83.6542,-400.7054"/>
<polygon fill="#000000" stroke="#000000" points="86.5797,-402.6413 89.8694,-392.5701 81.0173,-398.3916 86.5797,-402.6413"/>
<text text-anchor="start" x="68" y="-467.4" font-family="Times,serif" font-size="14.00" fill="#000000">Timeout()/</text>
<text text-anchor="start" x="68" y="-450.6" font-family="Times,serif" font-size="14.00" fill="#000000">TurnLight(EWLIGHT, YELLOW);</text>
<text text-anchor="start" x="68" y="-433.8" font-family="Times,serif" font-size="14.00" fill="#000000">SetTimer(YellowTimer);</text>
</g>
<!-- StopMap::NorthSouthGreen -->
<g id="node3" class="node">
<title>StopMap::NorthSouthGreen</title>
<path fill="none" stroke="#000000" d="M28.2363,-177.9C28.2363,-177.9 119.7637,-177.9 119.7637,-177.9 125.7637,-177.9 131.7637,-183.9 131.7637,-189.9 131.7637,-189.9 131.7637,-201.9 131.7637,-201.9 131.7637,-207.9 125.7637,-213.9 119.7637,-213.9 119.7637,-213.9 28.2363,-213.9 28.2363,-213.9 22.2363,-213.9 16.2363,-207.9 16.2363,-201.9 16.2363,-201.9 16.2363,-189.9 16.2363,-189.9 16.2363,-183.9 22.2363,-177.9 28.2363,-177.9"/>
<text text-anchor="middle" x="74" y="-191.8" font-family="Times,serif" font-size="14.00" fill="#000000">NorthSouthGreen</text>
</g>
<!-- StopMap::EastWestYellow&#45;&gt;StopMap::NorthSouthGreen -->
<g id="edge2" class="edge">
<title>StopMap::EastWestYellow&#45;&gt;StopMap::NorthSouthGreen</title>
<path fill="none" stroke="#000000" d="M89.5672,-355.681C81.2095,-345.5722 72.0835,-332.3242 67.718,-318.6 57.8176,-287.4751 62.0085,-249.6854 66.9756,-224.3396"/>
<polygon fill="#000000" stroke="#000000" points="70.455,-224.8042 69.113,-214.2947 63.6083,-223.3473 70.455,-224.8042"/>
<text text-anchor="start" x="67" y="-306" font-family="Times,serif" font-size="14.00" fill="#000000">Timeout()/</text>
<text text-anchor="start" x="67" y="-289.2" font-family="Times,serif" font-size="14.00" fill="#000000">TurnLight(EWLIGHT, RED);</text>
<text text-anchor="start" x="67" y="-272.4" font-family="Times,serif" font-size="14.00" fill="#000000">TurnLight(NSLIGHT, GREEN);</text>
<text text-anchor="start" x="67" y="-255.6" font-family="Times,serif" font-size="14.00" fill="#000000">SetTimer(NSGreenTimer);</text>
</g>
<!-- StopMap::NorthSouthYellow -->
<g id="node4" class="node">
<title>StopMap::NorthSouthYellow</title>
<path fill="none" stroke="#000000" d="M126.73,-16.5C126.73,-16.5 225.27,-16.5 225.27,-16.5 231.27,-16.5 237.27,-22.5 237.27,-28.5 237.27,-28.5 237.27,-40.5 237.27,-40.5 237.27,-46.5 231.27,-52.5 225.27,-52.5 225.27,-52.5 126.73,-52.5 126.73,-52.5 120.73,-52.5 114.73,-46.5 114.73,-40.5 114.73,-40.5 114.73,-28.5 114.73,-28.5 114.73,-22.5 120.73,-16.5 126.73,-16.5"/>
<text text-anchor="middle" x="176" y="-30.4" font-family="Times,serif" font-size="14.00" fill="#000000">NorthSouthYellow</text>
</g>
<!-- StopMap::NorthSouthGreen&#45;&gt;StopMap::NorthSouthYellow -->
<g id="edge3" class="edge">
<title>StopMap::NorthSouthGreen&#45;&gt;StopMap::NorthSouthYellow</title>
<path fill="none" stroke="#000000" d="M68.2148,-177.5492C62.3213,-155.1629 56.1289,-116.9736 72.2874,-90 80.6741,-76 93.9311,-65.3323 108.2006,-57.2808"/>
<polygon fill="#000000" stroke="#000000" points="109.932,-60.3253 117.1817,-52.5992 106.6963,-54.118 109.932,-60.3253"/>
<text text-anchor="start" x="72" y="-127.8" font-family="Times,serif" font-size="14.00" fill="#000000">Timeout()/</text>
<text text-anchor="start" x="72" y="-111" font-family="Times,serif" font-size="14.00" fill="#000000">TurnLight(NSLIGHT, YELLOW);</text>
<text text-anchor="start" x="72" y="-94.2" font-family="Times,serif" font-size="14.00" fill="#000000">SetTimer(YellowTimer);</text>
</g>
<!-- StopMap::NorthSouthYellow&#45;&gt;StopMap::EastWestGreen -->
<g id="edge4" class="edge">
<title>StopMap::NorthSouthYellow&#45;&gt;StopMap::EastWestGreen</title>
<path fill="none" stroke="#000000" d="M222.5381,-52.5591C239.593,-61.3987 257.5121,-73.7134 269,-90 275.5815,-99.3307 274,-103.7817 274,-115.2 274,-454.8 274,-454.8 274,-454.8 274,-466.2183 275.6668,-470.73 269,-480 259.1967,-493.6312 244.9368,-504.3887 230.3536,-512.6577"/>
<polygon fill="#000000" stroke="#000000" points="228.455,-509.7031 221.2686,-517.4881 231.7413,-515.8838 228.455,-509.7031"/>
<text text-anchor="start" x="274" y="-306" font-family="Times,serif" font-size="14.00" fill="#000000">Timeout()/</text>
<text text-anchor="start" x="274" y="-289.2" font-family="Times,serif" font-size="14.00" fill="#000000">TurnLight(NSLIGHT, RED);</text>
<text text-anchor="start" x="274" y="-272.4" font-family="Times,serif" font-size="14.00" fill="#000000">TurnLight(EWLIGHT, GREEN);</text>
<text text-anchor="start" x="274" y="-255.6" font-family="Times,serif" font-size="14.00" fill="#000000">SetTimer(EWGreenTimer);</text>
</g>
<!-- %1076887552 -->
<g id="node5" class="node">
<title>%201616</title>
<ellipse fill="#000000" stroke="#000000" cx="25" cy="-374.1" rx="9" ry="9"/>
</g>
<!-- %1077607549&#45;&gt;StopMap::NorthSouthGreen -->
<g id="edge5" class="edge">
<title>%0&#45;&gt;StopMap::NorthSouthGreen</title>
<path fill="none" stroke="#000000" d="M26.9863,-365.0671C32.0142,-342.5048 45.922,-281.9358 61,-232.4 61.8631,-229.5645 62.8142,-226.6237 63.7975,-223.698"/>
<polygon fill="#000000" stroke="#000000" points="67.1971,-224.5782 67.1831,-213.9833 60.587,-222.2745 67.1971,-224.5782"/>
</g>
</g>
</svg>
